<?xml version="1.0" standalone="no"?>
<!DOCTYPE svg PUBLIC "-//W3C//DTD SVG 20010904//EN"
 "http://www.w3.org/TR/2001/REC-SVG-20010904/DTD/svg10.dtd">
<svg version="1.0" xmlns="http://www.w3.org/2000/svg"
 width="600.000000pt" height="600.000000pt" viewBox="0 0 600.000000 600.000000"
 preserveAspectRatio="xMidYMid meet">
<metadata>
Created by potrace 1.14, written by Peter Selinger 2001-2017
</metadata>
<g transform="translate(0.000000,600.000000) scale(0.100000,-0.100000)"
fill="#000000" stroke="none">
<path d="M2738 5936 c-1 -2 -37 -6 -78 -10 -76 -7 -117 -12 -180 -22 -19 -3
-46 -8 -60 -10 -466 -76 -1015 -338 -1395 -665 -69 -59 -248 -240 -317 -319
-371 -426 -611 -971 -690 -1565 -14 -107 -17 -526 -5 -630 14 -118 18 -150 22
-175 3 -14 10 -54 15 -88 21 -129 108 -436 150 -527 5 -11 21 -49 36 -85 22
-55 135 -281 164 -330 47 -78 114 -185 121 -194 5 -6 40 -51 77 -101 85 -113
99 -129 213 -251 312 -333 760 -619 1184 -757 346 -112 599 -152 955 -152 352
1 598 40 943 151 59 19 113 32 120 28 6 -4 9 -4 5 1 -6 7 144 82 177 88 6 1
12 4 15 7 3 3 48 27 100 54 380 196 745 508 1002 856 228 310 393 661 493
1050 23 87 55 274 71 415 4 28 13 264 17 433 1 39 -1 72 -4 72 -3 0 -6 19 -7
43 0 23 -2 51 -5 63 -10 39 -11 89 -3 103 6 9 5 12 -2 8 -6 -5 -13 13 -18 45
-11 76 -11 91 -1 106 7 9 6 11 -4 7 -20 -7 -52 138 -35 155 8 8 7 11 -2 8 -9
-2 -23 29 -44 97 -16 55 -30 106 -30 113 -1 6 -5 12 -10 12 -4 0 -7 3 -6 8 1
8 -7 31 -28 80 -17 40 -17 45 -1 36 6 -4 2 3 -11 16 -13 12 -21 28 -18 35 3 8
2 15 -2 17 -4 2 -22 32 -40 67 -24 49 -29 67 -19 73 8 5 7 8 -6 8 -10 0 -15 5
-12 10 3 6 3 10 -2 10 -4 0 -19 21 -32 48 -14 26 -33 59 -44 74 -10 15 -19 37
-20 47 0 11 -5 17 -10 14 -4 -3 -11 4 -14 16 -3 12 -10 21 -15 21 -5 0 -7 4
-4 9 4 5 3 11 -2 13 -4 1 -18 18 -31 36 -20 28 -21 35 -9 50 12 15 11 16 -4 3
-15 -11 -19 -11 -25 5 -3 11 -9 21 -13 24 -3 3 -16 19 -28 36 -12 17 -32 44
-46 60 -193 231 -297 337 -463 475 -67 56 -133 109 -147 118 -13 9 -56 38 -96
65 -110 73 -232 146 -246 146 -7 0 -14 3 -16 8 -2 6 -185 94 -255 123 -13 5
-33 13 -45 18 -164 69 -503 156 -683 176 -33 4 -89 10 -125 14 -61 8 -464 13
-472 7z"/>
<path d="M5413 4855 c0 -8 4 -12 9 -9 5 3 6 10 3 15 -9 13 -12 11 -12 -6z"/>
<path d="M5286 4818 c3 -5 10 -6 15 -3 13 9 11 12 -6 12 -8 0 -12 -4 -9 -9z"/>
<path d="M5335 4819 c-3 -4 2 -6 10 -5 21 3 28 13 10 13 -9 0 -18 -4 -20 -8z"/>
<path d="M5415 4820 c3 -5 8 -10 11 -10 2 0 4 5 4 10 0 6 -5 10 -11 10 -5 0
-7 -4 -4 -10z"/>
<path d="M5375 4780 c-3 -5 -1 -10 4 -10 6 0 11 5 11 10 0 6 -2 10 -4 10 -3 0
-8 -4 -11 -10z"/>
<path d="M5415 4780 c3 -5 8 -10 11 -10 2 0 4 5 4 10 0 6 -5 10 -11 10 -5 0
-7 -4 -4 -10z"/>
<path d="M5530 4661 c0 -6 4 -13 10 -16 6 -3 7 1 4 9 -7 18 -14 21 -14 7z"/>
<path d="M5555 4620 c3 -5 8 -10 11 -10 2 0 4 5 4 10 0 6 -5 10 -11 10 -5 0
-7 -4 -4 -10z"/>
<path d="M5533 4553 c0 -9 4 -10 14 -2 7 6 13 12 13 14 0 1 -6 2 -13 2 -8 0
-14 -6 -14 -14z"/>
<path d="M5500 4526 c0 -2 8 -10 18 -17 15 -13 16 -12 3 4 -13 16 -21 21 -21
13z"/>
<path d="M5515 4480 c3 -5 8 -10 11 -10 2 0 4 5 4 10 0 6 -5 10 -11 10 -5 0
-7 -4 -4 -10z"/>
<path d="M5650 4336 c0 -2 8 -10 18 -17 15 -13 16 -12 3 4 -13 16 -21 21 -21
13z"/>
<path d="M5626 4302 c-3 -5 1 -9 9 -9 8 0 15 4 15 9 0 4 -4 8 -9 8 -6 0 -12
-4 -15 -8z"/>
<path d="M5620 4266 c0 -2 8 -10 18 -17 15 -13 16 -12 3 4 -13 16 -21 21 -21
13z"/>
<path d="M5696 4238 c3 -5 10 -6 15 -3 13 9 11 12 -6 12 -8 0 -12 -4 -9 -9z"/>
<path d="M5630 4226 c0 -2 7 -7 16 -10 8 -3 12 -2 9 4 -6 10 -25 14 -25 6z"/>
<path d="M5689 4203 c-13 -16 -12 -17 4 -4 16 13 21 21 13 21 -2 0 -10 -8 -17
-17z"/>
<path d="M5686 4158 c3 -5 10 -6 15 -3 13 9 11 12 -6 12 -8 0 -12 -4 -9 -9z"/>
<path d="M5713 4127 c-1 -11 -1 -18 0 -16 2 2 8 11 15 20 9 12 9 16 -1 16 -7
0 -14 -9 -14 -20z"/>
<path d="M5733 4087 c0 -7 11 -13 23 -13 20 0 25 11 6 11 -4 0 -12 3 -18 7 -6
4 -11 1 -11 -5z"/>
<path d="M5743 4042 c10 -10 15 -21 12 -24 -3 -2 2 -5 10 -5 12 0 10 6 -7 24
-25 27 -39 32 -15 5z"/>
<path d="M5747 3979 c7 -9 10 -19 6 -22 -3 -4 -1 -7 5 -7 17 0 15 16 -5 31
-16 12 -17 12 -6 -2z"/>
<path d="M5819 3913 c-13 -16 -12 -17 4 -4 9 7 17 15 17 17 0 8 -8 3 -21 -13z"/>
<path d="M5805 3880 c10 -11 20 -20 23 -20 3 0 -3 9 -13 20 -10 11 -20 20 -23
20 -3 0 3 -9 13 -20z"/>
<path d="M5793 3813 c0 -9 4 -10 14 -2 7 6 13 12 13 14 0 1 -6 2 -13 2 -8 0
-14 -6 -14 -14z"/>
<path d="M5839 3753 c-13 -16 -12 -17 3 -5 9 8 23 10 29 6 8 -4 9 -3 5 4 -10
17 -21 15 -37 -5z"/>
<path d="M5853 3717 c0 -12 1 -16 4 -9 3 6 9 10 13 7 5 -3 12 0 16 7 4 7 4 10
-1 6 -4 -4 -13 -4 -19 2 -8 6 -12 2 -13 -13z"/>
<path d="M5879 3698 c-6 -23 -7 -48 -1 -48 4 0 8 11 8 25 0 21 -4 33 -7 23z"/>
<path d="M5867 3627 c-3 -7 3 -13 14 -13 13 0 15 3 7 13 -6 7 -12 13 -13 13
-2 0 -5 -6 -8 -13z"/>
<path d="M5889 3563 c-13 -16 -12 -17 4 -4 16 13 21 21 13 21 -2 0 -10 -8 -17
-17z"/>
<path d="M5861 3554 c0 -11 3 -14 6 -6 3 7 2 16 -1 19 -3 4 -6 -2 -5 -13z"/>
<path d="M5896 3522 c-3 -5 1 -9 9 -9 8 0 12 4 9 9 -3 4 -7 8 -9 8 -2 0 -6 -4
-9 -8z"/>
<path d="M5919 3468 c-5 -16 -4 -46 2 -42 4 2 7 13 6 24 -1 17 -5 26 -8 18z"/>
<path d="M5917 3388 c8 -10 20 -15 24 -12 11 6 12 14 2 13 -20 -3 -27 2 -13
11 12 7 10 9 -7 7 -21 -1 -21 -3 -6 -19z"/>
<path d="M5883 3375 c-3 -9 -3 -18 -1 -21 3 -3 8 4 11 16 6 23 -1 27 -10 5z"/>
<path d="M5902 3327 c10 -8 14 -18 10 -22 -4 -5 -1 -5 6 -1 17 10 15 14 -10
26 -21 10 -21 10 -6 -3z"/>
<path d="M5936 3327 c3 -10 9 -15 12 -12 3 3 0 11 -7 18 -10 9 -11 8 -5 -6z"/>
<path d="M5907 3245 c-3 -5 5 -10 18 -10 12 0 22 5 22 10 0 6 -8 11 -18 11
-10 0 -20 -5 -22 -11z"/>
<path d="M5930 3200 c0 -5 9 -8 20 -7 21 1 18 10 -5 13 -8 1 -15 -2 -15 -6z"/>
<path d="M5900 3166 c0 -2 8 -10 18 -17 15 -13 16 -12 3 4 -13 16 -21 21 -21
13z"/>
</g>
</svg>
